<svg xmlns="http://www.w3.org/2000/svg" style="display:none">
  <symbol id="icon-logo" viewBox="0 0 45 32">
    <path d="M37.154 5.078c-0.459 0.121-0.81 0.443-0.957 0.876-0.063 0.186-0.071 0.546-0.016 0.753 0.115 0.428 0.425 0.761 0.85 0.908 0.199 0.068 0.611 0.073 0.824 0.008 0.299-0.089 0.606-0.354 0.719-0.614 0.021-0.052 0.058-0.134 0.079-0.176 0.136-0.294 0.115-0.69-0.058-1.047-0.157-0.323-0.38-0.53-0.692-0.645-0.144-0.055-0.627-0.094-0.748-0.063z"></path>
    <path d="M19.987 6.953c-0.241 0.037-0.585 0.105-0.669 0.131-0.042 0.013-0.155 0.045-0.249 0.073-1.104 0.323-2.222 1.096-2.946 2.041-0.231 0.302-0.462 0.703-0.671 1.17-0.045 0.097-0.081 0.189-0.081 0.202s-0.037 0.129-0.079 0.26c-0.045 0.129-0.097 0.351-0.121 0.493-0.021 0.142-0.052 0.333-0.068 0.428-0.037 0.226-0.037 1.23 0 1.429 0.115 0.624 0.139 0.727 0.163 0.761 0.011 0.013 0.050 0.115 0.087 0.223s0.113 0.302 0.171 0.433c0.108 0.241 0.412 0.8 0.449 0.826 0.013 0.008 0.042 0.055 0.068 0.105 0.121 0.236 0.543 0.706 0.918 1.020 0.816 0.687 1.736 1.12 2.807 1.317 0.27 0.050 0.407 0.060 0.971 0.060 0.569 0 0.698-0.008 0.971-0.060 1.991-0.37 3.591-1.645 4.289-3.412 0.197-0.504 0.312-0.9 0.315-1.091 0-0.058 0.013-0.118 0.029-0.134 0.034-0.034 0.016-1.338-0.024-1.66-0.068-0.574-0.451-1.555-0.821-2.104-0.32-0.47-0.653-0.858-0.994-1.151-0.199-0.171-0.58-0.451-0.724-0.538-0.346-0.205-0.582-0.323-0.994-0.496-0.312-0.134-0.803-0.257-1.233-0.312-0.341-0.045-1.304-0.052-1.561-0.013zM22.34 8.433c0.084 0.037 0.197 0.113 0.252 0.165 0.1 0.097 0.228 0.338 0.228 0.428 0 0.026 0.013 0.055 0.026 0.063 0.016 0.008 0.026 0.039 0.026 0.066 0 0.060 0.084 0.144 0.464 0.467 0.446 0.378 0.664 0.535 1.075 0.787 0.207 0.126 0.38 0.244 0.386 0.26 0.026 0.066-0.018 0.113-0.231 0.252-0.241 0.16-0.362 0.286-0.443 0.462-0.055 0.118-0.058 0.149-0.060 1.267 0 0.761-0.011 1.167-0.029 1.207-0.016 0.034-0.042 0.126-0.060 0.205-0.055 0.244-0.231 0.622-0.433 0.934-0.425 0.653-1.036 1.115-1.784 1.356-0.404 0.129-0.467 0.136-1.115 0.136-0.548 0-0.648-0.008-0.892-0.063-1.012-0.223-1.839-0.703-2.321-1.346-0.11-0.144-0.212-0.294-0.226-0.328-0.013-0.031-0.047-0.113-0.076-0.178-0.058-0.126-0.155-0.488-0.157-0.577 0-0.029-0.042-0.136-0.094-0.236-0.21-0.412-0.239-0.48-0.27-0.656-0.034-0.191-0.021-0.291 0.084-0.582 0.024-0.058 0.055-0.223 0.071-0.367 0.058-0.504 0.139-0.7 0.372-0.913 0.218-0.197 0.325-0.139 0.257 0.136-0.016 0.068-0.045 0.191-0.060 0.27-0.042 0.191-0.042 1.044 0 1.246 0.157 0.763 0.357 1.157 0.811 1.6 0.658 0.643 1.516 0.926 2.591 0.85 0.761-0.052 1.322-0.304 1.802-0.805 0.223-0.231 0.433-0.54 0.498-0.729 0.018-0.055 0.042-0.115 0.052-0.129 0.026-0.042 0.144-0.425 0.194-0.624 0.050-0.205 0.11-0.561 0.16-0.95 0.018-0.152 0.063-0.359 0.089-0.42 0.184-0.428 0.328-0.609 0.627-0.774 0.226-0.126 0.275-0.168 0.26-0.215-0.011-0.021-0.168-0.102-0.354-0.178-0.435-0.176-0.498-0.218-0.782-0.485-0.22-0.212-0.438-0.38-0.59-0.454-0.372-0.181-0.936-0.178-1.325 0.008-0.291 0.139-0.393 0.26-0.879 1.026-0.181 0.286-0.472 0.598-0.666 0.716-0.283 0.171-0.671 0.231-0.944 0.149-0.349-0.105-0.511-0.391-0.435-0.758 0.037-0.176 0.181-0.336 0.386-0.43 0.163-0.073 0.191-0.118 0.191-0.283 0-0.144 0.113-0.407 0.233-0.543 0.152-0.173 0.315-0.257 0.532-0.275 0.21-0.016 0.26-0.045 0.336-0.191 0.079-0.152 0.231-0.289 0.414-0.375s0.289-0.097 0.609-0.058c0.165 0.018 0.178 0.016 0.312-0.066 0.22-0.136 0.307-0.16 0.532-0.147 0.144 0.008 0.244 0.031 0.354 0.081zM22.843 10.424c0.071 0.037 0.134 0.139 0.134 0.215 0 0.084-0.087 0.199-0.176 0.236-0.163 0.068-0.299 0.003-0.349-0.171-0.063-0.223 0.173-0.393 0.391-0.281z"></path>
    <path d="M7.654 8.577c-0.498 0.008-0.915 0.021-0.926 0.031-0.011 0.008-0.021 1.736-0.024 3.84-0.008 3.683-0.005 3.824 0.042 3.871 0.045 0.045 0.113 0.047 1.146 0.047 0.887 0 1.104-0.008 1.128-0.034 0.021-0.026 0.031-0.606 0.034-2.014 0.008-1.734 0.013-1.978 0.047-1.983 0.026-0.005 0.186 0.202 0.446 0.569 0.561 0.797 0.797 1.136 0.939 1.351 0.066 0.1 0.194 0.283 0.281 0.407 0.089 0.123 0.275 0.393 0.42 0.603 0.142 0.207 0.27 0.393 0.286 0.409 0.016 0.018 0.11 0.163 0.212 0.32 0.134 0.212 0.205 0.302 0.27 0.331 0.073 0.037 0.233 0.042 1.12 0.042 0.991 0 1.036-0.003 1.062-0.050 0.016-0.034 0.029-1.322 0.031-3.853 0.008-3.19 0.003-3.809-0.029-3.843-0.031-0.039-0.144-0.045-1.128-0.045-0.601 0-1.107 0.011-1.125 0.024-0.026 0.016-0.037 0.239-0.045 1.041-0.013 1.482-0.016 2.594-0.008 2.633 0.005 0.016-0.013 0.045-0.039 0.060-0.055 0.037-0.042 0.052-0.289-0.315-0.265-0.393-1.094-1.608-1.209-1.771-0.129-0.178-0.367-0.522-0.813-1.159-0.375-0.54-0.38-0.543-0.708-0.535-0.115 0.003-0.622 0.013-1.123 0.021z"></path>
    <path d="M26.89 8.572c-0.087 0.013-0.094 0.058-0.029 0.205 0.047 0.11 0.1 0.244 0.275 0.719 0.134 0.365 0.205 0.556 0.247 0.682 0.058 0.173 0.178 0.501 0.273 0.742 0.089 0.226 0.189 0.491 0.254 0.674 0.029 0.079 0.076 0.202 0.102 0.275 0.026 0.071 0.079 0.22 0.118 0.328s0.081 0.22 0.094 0.249c0.013 0.029 0.071 0.189 0.131 0.354 0.176 0.493 0.278 0.766 0.338 0.918 0.031 0.079 0.129 0.338 0.215 0.577 0.089 0.239 0.176 0.475 0.194 0.525s0.087 0.239 0.152 0.42c0.307 0.855 0.386 1.039 0.462 1.083 0.066 0.039 0.212 0.045 1.474 0.045h1.398l0.068-0.113c0.037-0.060 0.087-0.181 0.113-0.268s0.055-0.181 0.068-0.21c0.094-0.231 0.131-0.331 0.157-0.433 0.018-0.066 0.039-0.123 0.050-0.131s0.047-0.102 0.087-0.21c0.155-0.446 0.593-1.616 0.653-1.749 0.026-0.063 0.050-0.129 0.050-0.152 0-0.021 0.016-0.076 0.037-0.123s0.094-0.233 0.16-0.414c0.068-0.181 0.131-0.346 0.142-0.367 0.013-0.021 0.037-0.102 0.055-0.178 0.021-0.073 0.042-0.136 0.052-0.136 0.008 0 0.029-0.055 0.050-0.126 0.018-0.068 0.045-0.147 0.055-0.176 0.105-0.233 0.157-0.365 0.157-0.386 0-0.013 0.024-0.073 0.050-0.134s0.066-0.163 0.084-0.228c0.018-0.066 0.042-0.131 0.052-0.144 0.008-0.016 0.026-0.068 0.037-0.118s0.029-0.097 0.039-0.105c0.011-0.008 0.042-0.084 0.071-0.171s0.11-0.312 0.178-0.498c0.068-0.189 0.15-0.425 0.181-0.525 0.031-0.102 0.073-0.207 0.089-0.236 0.055-0.1 0.139-0.414 0.118-0.435-0.013-0.013-0.593-0.026-1.288-0.031-1.138-0.005-1.267 0-1.306 0.037-0.045 0.045-0.102 0.21-0.244 0.679-0.047 0.152-0.094 0.299-0.108 0.328s-0.108 0.317-0.21 0.643c-0.215 0.682-0.441 1.393-0.564 1.771-0.047 0.144-0.139 0.438-0.207 0.656-0.068 0.215-0.134 0.417-0.147 0.446s-0.055 0.147-0.094 0.262c-0.039 0.115-0.081 0.22-0.092 0.233-0.034 0.037-0.097-0.031-0.115-0.123-0.016-0.084-0.283-0.9-0.328-1.002-0.013-0.029-0.042-0.118-0.066-0.197s-0.060-0.181-0.081-0.228c-0.021-0.045-0.037-0.094-0.037-0.11s-0.011-0.050-0.024-0.076c-0.013-0.024-0.060-0.168-0.108-0.32-0.045-0.152-0.113-0.359-0.149-0.459-0.034-0.102-0.081-0.249-0.1-0.328-0.042-0.157-0.241-0.795-0.278-0.879-0.013-0.029-0.058-0.171-0.102-0.315s-0.092-0.286-0.105-0.315c-0.013-0.029-0.031-0.094-0.042-0.144-0.008-0.050-0.026-0.108-0.039-0.131-0.011-0.021-0.039-0.102-0.063-0.176-0.024-0.076-0.066-0.165-0.092-0.197l-0.047-0.060h-1.23c-0.674 0-1.254 0.003-1.288 0.008z"></path>
    <path d="M36.27 8.572c-0.060 0.011-0.073 1.057-0.055 4.601 0.013 2.641 0.021 3.085 0.055 3.137l0.037 0.058 1.117-0.005 1.117-0.008 0.034-0.066c0.052-0.1 0.047-7.607-0.005-7.675-0.034-0.047-0.094-0.050-1.146-0.050-0.611 0-1.13 0.003-1.154 0.008z"></path>
    <path d="M33.98 18.615c-0.855 0.108-1.702 0.477-2.256 0.984-0.299 0.275-0.653 0.75-0.845 1.136-0.121 0.241-0.291 0.753-0.338 1.007-0.055 0.304-0.055 1.007 0 1.361 0.157 1.023 0.758 1.988 1.566 2.523 0.842 0.556 1.639 0.769 2.712 0.724 0.546-0.021 0.632-0.031 0.931-0.113 0.454-0.118 0.944-0.325 1.272-0.53 0.451-0.283 0.939-0.784 1.204-1.235 0.165-0.283 0.325-0.669 0.378-0.913 0.024-0.11 0.050-0.207 0.058-0.215 0.039-0.031 0.079-0.472 0.079-0.884 0-0.407-0.037-0.813-0.079-0.847-0.008-0.008-0.034-0.105-0.058-0.215-0.129-0.598-0.611-1.385-1.107-1.807-0.939-0.795-2.195-1.144-3.517-0.976zM35.134 20.658c0.073 0.021 0.144 0.045 0.157 0.047 0.016 0.003 0.11 0.050 0.212 0.102 0.422 0.223 0.792 0.727 0.876 1.193 0.031 0.178 0.039 0.727 0.013 0.889-0.031 0.191-0.152 0.491-0.268 0.674-0.22 0.341-0.509 0.561-0.918 0.706-0.212 0.071-0.26 0.079-0.559 0.076-0.367-0.003-0.532-0.037-0.821-0.171-0.244-0.115-0.477-0.302-0.637-0.517-0.071-0.094-0.136-0.176-0.144-0.184-0.024-0.016-0.165-0.393-0.212-0.551-0.050-0.178-0.042-0.766 0.016-0.944 0.144-0.454 0.244-0.63 0.514-0.892 0.247-0.239 0.598-0.414 0.971-0.483 0.131-0.024 0.671 0.011 0.8 0.052z"></path>
    <path d="M17.954 18.633c-0.129 0.018-0.265 0.042-0.302 0.052s-0.113 0.031-0.171 0.047c-0.876 0.236-1.561 0.651-2.030 1.228-0.207 0.252-0.194 0.233-0.254 0.341-0.026 0.050-0.066 0.108-0.087 0.131-0.037 0.037-0.191 0.351-0.278 0.564-0.197 0.485-0.273 1.283-0.197 2.093 0.129 1.348 1.162 2.568 2.571 3.035 0.53 0.176 0.669 0.194 1.508 0.194 0.845 0.003 0.95-0.011 1.482-0.186 0.346-0.113 0.837-0.349 1.036-0.498 0.016-0.013 0.087-0.063 0.157-0.113 0.155-0.108 0.173-0.123 0.409-0.325 0.304-0.26 0.317-0.283 0.341-0.664 0.037-0.553 0.037-2.584 0-2.649-0.018-0.034-0.063-0.063-0.115-0.071-0.045-0.008-0.842-0.013-1.768-0.008-1.33 0.003-1.692 0.013-1.718 0.039-0.042 0.042-0.031 1.755 0.011 1.807 0.021 0.026 0.189 0.034 0.677 0.034 0.727 0 0.734 0.003 0.734 0.189 0 0.171-0.197 0.302-0.637 0.42-0.286 0.079-0.866 0.084-1.107 0.013-0.435-0.134-0.784-0.391-1.033-0.766-0.194-0.289-0.252-0.446-0.291-0.787-0.073-0.653 0.092-1.196 0.504-1.629 0.265-0.281 0.632-0.464 1.068-0.535 0.522-0.087 1.151 0.168 1.474 0.593 0.163 0.212 0.212 0.215 0.574 0.029 0.152-0.079 0.525-0.27 0.826-0.425 0.304-0.155 0.567-0.294 0.585-0.307 0.016-0.016 0.031-0.055 0.031-0.092 0-0.071-0.068-0.218-0.102-0.218-0.011 0-0.034-0.031-0.050-0.068-0.136-0.294-0.734-0.834-1.212-1.094-0.202-0.11-0.635-0.265-0.944-0.338-0.289-0.066-1.322-0.089-1.692-0.037z"></path>
    <path d="M9.43 18.956c-0.149 0.018-0.189 0.058-0.236 0.228-0.055 0.202-0.168 0.556-0.21 0.658-0.084 0.197-0.275 0.716-0.291 0.787-0.011 0.042-0.034 0.108-0.052 0.144s-0.071 0.165-0.115 0.289c-0.045 0.123-0.1 0.27-0.123 0.328-0.021 0.058-0.058 0.152-0.079 0.21-0.024 0.058-0.052 0.134-0.068 0.171-0.031 0.079-0.034 0.087-0.173 0.462-0.058 0.16-0.108 0.299-0.108 0.309s-0.029 0.084-0.066 0.163c-0.037 0.079-0.089 0.21-0.118 0.294-0.134 0.393-0.441 1.243-0.496 1.382-0.045 0.108-0.105 0.268-0.16 0.42-0.031 0.087-0.092 0.254-0.134 0.372-0.042 0.121-0.076 0.233-0.076 0.249 0 0.018-0.018 0.068-0.039 0.11-0.068 0.129-0.144 0.383-0.126 0.422 0.011 0.034 0.157 0.039 0.989 0.042 0.535 0.003 1.020 0.003 1.078-0.003 0.134-0.005 0.202-0.071 0.247-0.228 0.018-0.068 0.052-0.178 0.073-0.241 0.018-0.063 0.042-0.168 0.052-0.231 0.013-0.092 0.031-0.123 0.1-0.165 0.081-0.050 0.131-0.052 1.338-0.052 1.424 0 1.367-0.008 1.429 0.207 0.018 0.066 0.045 0.139 0.058 0.16 0.011 0.021 0.045 0.134 0.073 0.249 0.034 0.134 0.071 0.226 0.108 0.254 0.050 0.045 0.144 0.047 1.125 0.047h1.073l0.008-0.073c0.008-0.076-0.003-0.11-0.149-0.517-0.052-0.144-0.147-0.404-0.21-0.577s-0.149-0.409-0.191-0.525c-0.042-0.115-0.139-0.375-0.212-0.577-0.136-0.37-0.191-0.511-0.252-0.656-0.021-0.045-0.076-0.197-0.126-0.341-0.178-0.517-0.26-0.734-0.281-0.761-0.013-0.016-0.029-0.058-0.037-0.092-0.013-0.071-0.105-0.333-0.16-0.459-0.018-0.045-0.105-0.286-0.197-0.538-0.16-0.454-0.286-0.803-0.446-1.233-0.045-0.123-0.11-0.307-0.147-0.407-0.034-0.105-0.092-0.21-0.131-0.244l-0.066-0.058-1.199 0.003c-0.658 0.003-1.233 0.011-1.277 0.016zM10.786 21.272c0.052 0.152 0.121 0.351 0.152 0.446s0.068 0.191 0.081 0.215c0.013 0.026 0.024 0.071 0.024 0.097 0 0.029 0.011 0.058 0.024 0.066s0.029 0.042 0.037 0.073c0.031 0.152 0.129 0.483 0.147 0.506 0.013 0.013 0.037 0.089 0.052 0.165s0.052 0.184 0.081 0.241c0.068 0.134 0.066 0.194-0.005 0.228-0.081 0.034-1.411 0.011-1.458-0.026-0.045-0.034-0.031-0.089 0.131-0.609 0.073-0.231 0.171-0.543 0.218-0.695s0.11-0.346 0.139-0.433c0.029-0.087 0.073-0.233 0.097-0.328 0.060-0.241 0.058-0.241 0.123-0.231 0.050 0.005 0.076 0.052 0.157 0.283z"></path>
    <path d="M23.323 18.964l-0.060 0.026 0.005 3.436c0.003 2.502 0.013 3.452 0.034 3.494l0.031 0.060 1.012 0.008c1.005 0.005 1.015 0.005 1.044-0.050 0.021-0.037 0.029-0.367 0.024-1.089-0.005-0.968-0.003-1.036 0.042-1.086 0.042-0.047 0.081-0.052 0.341-0.052 0.244 0 0.304 0.008 0.349 0.045 0.068 0.060 0.184 0.291 0.333 0.664 0.068 0.165 0.144 0.349 0.171 0.407 0.102 0.233 0.391 0.897 0.428 0.989 0.076 0.186 0.037 0.181 1.293 0.173l1.125-0.008 0.008-0.066c0.005-0.045-0.121-0.317-0.365-0.8-0.391-0.776-0.443-0.873-0.737-1.401-0.081-0.144-0.055-0.21 0.123-0.331 0.344-0.226 0.75-0.724 0.873-1.073 0.144-0.407 0.197-0.981 0.126-1.353-0.026-0.123-0.055-0.283-0.068-0.359-0.026-0.163-0.178-0.491-0.315-0.682-0.286-0.401-0.59-0.63-1.073-0.813-0.399-0.149-0.341-0.147-2.599-0.155-1.296-0.005-2.109 0-2.146 0.016zM26.754 20.732c0.283 0.045 0.341 0.068 0.47 0.197 0.149 0.149 0.197 0.357 0.131 0.593-0.039 0.136-0.239 0.338-0.378 0.38-0.066 0.021-0.359 0.037-0.787 0.045-0.553 0.011-0.69 0.005-0.729-0.024-0.045-0.031-0.050-0.092-0.063-0.569-0.018-0.711-0.068-0.658 0.619-0.658 0.299 0 0.609 0.016 0.737 0.037z"></path>
  </symbol>
</svg>